<svg id="Capa_1" enable-background="new 0 0 512 512" height="512" viewBox="0 0 512 512" width="512" xmlns="http://www.w3.org/2000/svg"><g><g><path d="m297.846 322.122c25.618-23.789 41.094-42.337 51.749-62.018 12.717-23.489 18.64-49.068 18.64-80.499 0-2.524-.048-5.236-.147-8.29-.177-5.409-4.618-9.675-9.99-9.675-.11 0-.221.002-.331.005-5.521.181-9.851 4.801-9.671 10.321.093 2.836.138 5.335.138 7.64 0 57.847-21.552 88.445-63.998 127.862-46.292 42.986-50.09 97.125-50.387 103.963-7.741 54.493-43.007 76.817-70.925 79.37-33.08 3.031-61.788-17.136-73.135-51.366-14.255-42.965-59.613-233.308-36.487-324.468 12.617-49.726 53.737-84.517 109.997-93.064 54.185-8.236 125.292 10.238 161.977 70.066 2.887 4.707 9.044 6.183 13.754 3.298 4.708-2.887 6.185-9.044 3.298-13.754-18.49-30.154-46.387-53.474-80.673-67.442-31.528-12.843-67.527-17.081-101.361-11.943-29.954 4.551-57.21 16.146-78.821 33.533-23.58 18.969-40.026 44.692-47.56 74.387-12.904 50.867-5.345 128.313 3.267 184.325 10.518 68.395 25.871 127.99 33.624 151.357 7.253 21.881 20.41 39.554 38.049 51.108 14.196 9.298 30.968 14.242 47.952 14.242 2.644 0 5.296-.12 7.941-.362 21.296-1.947 41.553-11.695 57.039-27.447 16.987-17.278 28.034-41.342 31.947-69.59.052-.376.083-.755.092-1.135.01-.506 1.693-51.116 44.022-90.424z"/><path d="m243.431 263.585c-22.525 20.922-37.796 47.065-50.345 69.931-11.354 20.716-25.943 31.134-40.006 28.593-15.37-2.779-27.557-20.188-31.048-44.351-.789-5.466-5.862-9.247-11.328-8.468-5.467.79-9.258 5.862-8.469 11.328 4.743 32.825 23.304 56.836 47.285 61.173 2.668.482 5.324.721 7.962.721 20.181 0 39.213-13.962 53.142-39.379 11.794-21.49 26.08-46.001 46.417-64.891 31.88-29.589 51.237-50.994 51.237-98.637 0-52.894-24.681-92.016-69.491-110.155-18.473-7.492-39.957-10.737-60.49-9.14-22.513 1.751-42.629 9.073-58.172 21.173-14.393 11.198-23.855 25.802-28.122 43.401-3.607 14.824-2.603 27.773 3.161 40.756 10.904 24.526 32.934 22.025 49.018 20.198 2.388-.271 4.643-.527 6.878-.719 9.443-.799 18.514 3.214 24.255 10.722 4.445 5.836 6.348 13.053 5.361 20.321s-4.747 13.718-10.584 18.163c-4.395 3.346-5.245 9.621-1.899 14.014 3.345 4.395 9.619 5.244 14.015 1.899 10.086-7.679 16.581-18.824 18.288-31.382 1.707-12.566-1.584-25.042-9.28-35.149-9.924-12.974-25.574-19.902-41.852-18.517-2.519.215-5.02.499-7.439.774-17.436 1.98-23.943 1.762-28.481-8.446-3.93-8.851-4.548-17.458-2.003-27.914 3.221-13.289 10.08-23.865 20.97-32.338 24.549-19.112 65.203-22.931 98.866-9.28 47.111 19.07 57 60.349 57 91.618-.002 38.352-13.665 55.04-44.846 83.981z"/><path d="m474.999 326.183c5.523 0 10.001-4.478 10.001-10s-4.478-10-10.001-10c-108.076 0-196.002 87.843-196.002 195.817 0 5.523 4.478 10 10.001 10s10.001-4.478 10.001-10c0-96.946 78.953-175.817 176-175.817z"/><path d="m474.999 359.05c-78.896 0-143.082 64.127-143.082 142.949 0 5.523 4.478 10 10.001 10s10.001-4.478 10.001-10c0-67.794 55.214-122.948 123.08-122.948 5.523 0 10.001-4.478 10.001-10s-4.478-10.001-10.001-10.001z"/><path d="m474.999 411.918c-49.731 0-90.19 40.41-90.19 90.081 0 5.523 4.478 10 10.001 10s10.001-4.478 10.001-10c0-38.642 31.487-70.081 70.188-70.081 5.523 0 10.001-4.478 10.001-10s-4.478-10-10.001-10z"/><path d="m344.352 134.546.028.028c1.949 1.949 4.499 2.922 7.051 2.922 2.56 0 5.122-.981 7.078-2.937 3.906-3.905 3.892-10.251-.014-14.157-3.907-3.904-10.237-3.904-14.144 0-3.905 3.906-3.905 10.239.001 14.144z"/></g></g></svg>