<svg id="Layer_5" enable-background="new 0 0 64 64" height="512" viewBox="0 0 64 64" width="512" xmlns="http://www.w3.org/2000/svg"><g><path d="m22 29h20v-6h-20zm2-4h16v2h-16z"/><path d="m22 31h2v2h-2z"/><path d="m26 31h16v2h-16z"/><path d="m22 35h20v2h-20z"/><path d="m40 39h2v2h-2z"/><path d="m22 39h16v2h-16z"/><path d="m25 5h-20v6h20zm-2 4h-16v-2h16z"/><path d="m5 13h2v2h-2z"/><path d="m9 13h16v2h-16z"/><path d="m5 17h11v2h-11z"/><path d="m5 21h11v2h-11z"/><path d="m5 53h20v2h-20z"/><path d="m23 57h2v2h-2z"/><path d="m5 57h16v2h-16z"/><path d="m60 27c1.654 0 3-1.346 3-3v-20c0-1.654-1.346-3-3-3h-22c-1.654 0-3 1.346-3 3v9h-6v-9c0-1.654-1.346-3-3-3h-22c-1.654 0-3 1.346-3 3v20c0 1.654 1.346 3 3 3h8v10h-8c-1.654 0-3 1.346-3 3v20c0 1.654 1.346 3 3 3h22c1.654 0 3-1.346 3-3v-9h6v9c0 1.654 1.346 3 3 3h22c1.654 0 3-1.346 3-3v-20c0-1.654-1.346-3-3-3h-8v-10zm-22-24h22c.551 0 1 .448 1 1v20c0 .552-.449 1-1 1h-14v-3c0-1.654-1.346-3-3-3h-6v-15c0-.552.449-1 1-1zm-17 40c-.551 0-1-.448-1-1v-20c0-.552.449-1 1-1h22c.551 0 1 .448 1 1v20c0 .552-.449 1-1 1zm-2.816 0c.414 1.161 1.514 2 2.816 2h2v4h-16v-6zm22.816 2h2c1.302 0 2.402-.839 2.816-2h11.184v6h-16zm-6-30v4h-6v-4zm-32 9v-20c0-.552.449-1 1-1h22c.551 0 1 .448 1 1v15h-6c-1.654 0-3 1.346-3 3v3h-14c-.551 0-1-.448-1-1zm11 3h4v10h-4zm12 34h-22c-.551 0-1-.448-1-1v-20c0-.552.449-1 1-1h14v2h-13v10h20v-6h2v15c0 .552-.449 1-1 1zm3-12v-4h6v4zm32-9v20c0 .552-.449 1-1 1h-22c-.551 0-1-.448-1-1v-15h2v6h20v-10h-13v-2h14c.551 0 1 .448 1 1zm-11-3h-4v-10h4z"/><path d="m59 5h-20v6h20zm-2 4h-16v-2h16z"/><path d="m39 13h2v2h-2z"/><path d="m43 13h16v2h-16z"/><path d="m48 17h11v2h-11z"/><path d="m48 21h11v2h-11z"/><path d="m39 53h20v2h-20z"/><path d="m57 57h2v2h-2z"/><path d="m39 57h16v2h-16z"/></g></svg>