<?xml version="1.0" encoding="iso-8859-1"?>
<!-- Generator: Adobe Illustrator 19.0.0, SVG Export Plug-In . SVG Version: 6.00 Build 0)  -->
<svg version="1.1" id="Capa_1" xmlns="http://www.w3.org/2000/svg" xmlns:xlink="http://www.w3.org/1999/xlink" x="0px" y="0px"
	 viewBox="0 0 512 512" style="enable-background:new 0 0 512 512;" xml:space="preserve">
<g>
	<g>
		<g>
			<path d="M506.438,424.521L296.344,44.354c-7.844-14.198-22.792-23.021-39.021-23.021h-2.646
				c-16.229,0-31.177,8.823-39.021,23.021L5.552,424.521C1.917,431.115,0,438.563,0,446.083c0,24.583,20,44.583,44.583,44.583
				h422.833c24.583,0,44.583-20,44.583-44.583C512,438.563,510.083,431.115,506.438,424.521z M467.417,469.333H44.583
				c-12.823,0-23.25-10.427-23.25-23.25c0-3.917,1-7.813,2.896-11.25L234.323,54.667c4.094-7.396,11.896-12,20.354-12h2.646
				c8.458,0,16.26,4.604,20.354,12L487.76,434.833c1.906,3.438,2.906,7.333,2.906,11.25
				C490.667,458.906,480.24,469.333,467.417,469.333z"/>
			<path d="M315.25,254.208c4.906-3.271,6.229-9.885,2.958-14.792c-3.26-4.906-9.875-6.219-14.792-2.958l-32,21.333
				c-2.969,1.979-4.75,5.313-4.75,8.875v106.667c0,3.563,1.781,6.896,4.75,8.875l32,21.333c1.823,1.208,3.875,1.792,5.906,1.792
				c3.448,0,6.833-1.667,8.885-4.75c3.271-4.906,1.948-11.521-2.958-14.792L288,367.625v-95.25L315.25,254.208z"/>
			<path d="M240.583,257.792l-32-21.333c-4.948-3.26-11.531-1.948-14.792,2.958c-3.271,4.906-1.948,11.521,2.958,14.792L224,272.375
				v95.25l-27.25,18.167c-4.906,3.271-6.229,9.885-2.958,14.792c2.052,3.083,5.438,4.75,8.885,4.75c2.031,0,4.083-0.583,5.906-1.792
				l32-21.333c2.969-1.979,4.75-5.313,4.75-8.875V266.667C245.333,263.104,243.552,259.771,240.583,257.792z"/>
		</g>
	</g>
</g>
<g>
</g>
<g>
</g>
<g>
</g>
<g>
</g>
<g>
</g>
<g>
</g>
<g>
</g>
<g>
</g>
<g>
</g>
<g>
</g>
<g>
</g>
<g>
</g>
<g>
</g>
<g>
</g>
<g>
</g>
</svg>
