<svg width="345" height="345" viewBox="0 0 345 345" fill="none" xmlns="http://www.w3.org/2000/svg">
<path fill-rule="evenodd" clip-rule="evenodd" d="M285.578 146.293C281.843 147.197 277.942 147.676 273.93 147.676C269.819 147.676 265.826 147.173 262.009 146.226C246.533 147.793 237.303 154.549 233.324 176.493L181.803 202.254H103.648L233.28 126.308C227.8 118.359 224.592 108.723 224.592 98.338C224.592 71.0894 246.681 49 273.93 49C301.178 49 323.268 71.0894 323.268 98.338C323.268 121.304 307.576 140.605 286.329 146.105L287.028 146.366C286.541 146.341 286.058 146.317 285.578 146.293ZM301.437 98.7747C301.437 113.725 289.317 125.845 274.366 125.845C259.416 125.845 247.296 113.725 247.296 98.7747C247.296 83.8241 259.416 71.7042 274.366 71.7042C289.317 71.7042 301.437 83.8241 301.437 98.7747ZM142.944 170.817L180.93 148.549C89.3807 96.7844 41.3975 71.467 22 99.6479L142.944 170.817ZM198.394 201.817L232.182 221.356C227.374 228.971 224.592 237.991 224.592 247.662C224.592 274.911 246.681 297 273.93 297C301.178 297 323.268 274.911 323.268 247.662C323.268 220.413 301.178 198.324 273.93 198.324C269.313 198.324 264.845 198.958 260.607 200.144C244.497 197.623 238.486 192.19 234.634 181.732L198.394 201.817ZM274.366 275.169C289.317 275.169 301.437 263.049 301.437 248.099C301.437 233.148 289.317 221.028 274.366 221.028C259.416 221.028 247.296 233.148 247.296 248.099C247.296 263.049 259.416 275.169 274.366 275.169Z" fill="white"/>
</svg>
