<svg width="864" height="42" viewBox="0 0 864 42" fill="none" xmlns="http://www.w3.org/2000/svg">
<line y1="26" x2="830" y2="26" stroke="white" stroke-width="2" stroke-dasharray="6 6"/>
<path fill-rule="evenodd" clip-rule="evenodd" d="M856.766 17.8096C856.311 17.9196 855.836 17.9779 855.348 17.9779C854.848 17.9779 854.362 17.9168 853.897 17.8015C852.013 17.9921 850.889 18.8147 850.405 21.4861L844.133 24.6222H834.618L850.399 15.3766C849.732 14.4089 849.342 13.2358 849.342 11.9716C849.342 8.65435 852.031 5.96521 855.348 5.96521C858.665 5.96521 861.354 8.65435 861.354 11.9716C861.354 14.7674 859.444 17.1171 856.858 17.7867L856.943 17.8185C856.883 17.8155 856.824 17.8125 856.766 17.8096ZM858.697 12.0247C858.697 13.8448 857.221 15.3203 855.401 15.3203C853.581 15.3203 852.106 13.8448 852.106 12.0247C852.106 10.2047 853.581 8.72922 855.401 8.72922C857.221 8.72922 858.697 10.2047 858.697 12.0247ZM839.402 20.7951L844.026 18.0843C832.881 11.7825 827.04 8.70034 824.678 12.1311L839.402 20.7951ZM846.152 24.569L850.266 26.9478C849.68 27.8747 849.342 28.9729 849.342 30.1502C849.342 33.4674 852.031 36.1566 855.348 36.1566C858.665 36.1566 861.354 33.4674 861.354 30.1502C861.354 26.833 858.665 24.1438 855.348 24.1438C854.786 24.1438 854.242 24.221 853.726 24.3653C851.765 24.0585 851.033 23.397 850.564 22.124L846.152 24.569ZM855.401 33.4988C857.221 33.4988 858.697 32.0234 858.697 30.2033C858.697 28.3832 857.221 26.9078 855.401 26.9078C853.581 26.9078 852.106 28.3832 852.106 30.2033C852.106 32.0234 853.581 33.4988 855.401 33.4988Z" fill="white"/>
</svg>
